<mxfile host="app.diagrams.net" modified="2020-09-03T13:21:38.828Z" agent="5.0 (Windows NT 10.0; Win64; x64) AppleWebKit/537.36 (KHTML, like Gecko) Chrome/85.0.4183.83 Safari/537.36" etag="kyxvKFw6LCZks6BJDY2s" version="13.6.6" type="github">
  <diagram id="TwQ63cRN2fktnM00_QHZ" name="Page-1">
    <mxGraphModel dx="1422" dy="762" grid="1" gridSize="10" guides="1" tooltips="1" connect="1" arrows="1" fold="1" page="1" pageScale="1" pageWidth="827" pageHeight="1169" math="0" shadow="0">
      <root>
        <mxCell id="0" />
        <mxCell id="1" parent="0" />
        <mxCell id="TlWQN2txDWV7WAbXTliT-4" value="" style="edgeStyle=orthogonalEdgeStyle;rounded=0;orthogonalLoop=1;jettySize=auto;html=1;" edge="1" parent="1" source="TlWQN2txDWV7WAbXTliT-1" target="TlWQN2txDWV7WAbXTliT-2">
          <mxGeometry relative="1" as="geometry" />
        </mxCell>
        <mxCell id="TlWQN2txDWV7WAbXTliT-1" value="Начало" style="ellipse;whiteSpace=wrap;html=1;" vertex="1" parent="1">
          <mxGeometry x="330" y="20" width="120" height="80" as="geometry" />
        </mxCell>
        <mxCell id="TlWQN2txDWV7WAbXTliT-6" value="" style="edgeStyle=orthogonalEdgeStyle;rounded=0;orthogonalLoop=1;jettySize=auto;html=1;" edge="1" parent="1" source="TlWQN2txDWV7WAbXTliT-2" target="TlWQN2txDWV7WAbXTliT-5">
          <mxGeometry relative="1" as="geometry" />
        </mxCell>
        <mxCell id="TlWQN2txDWV7WAbXTliT-2" value="Объявление A,B,C" style="rounded=1;whiteSpace=wrap;html=1;" vertex="1" parent="1">
          <mxGeometry x="330" y="150" width="120" height="60" as="geometry" />
        </mxCell>
        <mxCell id="TlWQN2txDWV7WAbXTliT-12" style="edgeStyle=orthogonalEdgeStyle;rounded=0;orthogonalLoop=1;jettySize=auto;html=1;entryX=0.5;entryY=0;entryDx=0;entryDy=0;" edge="1" parent="1" source="TlWQN2txDWV7WAbXTliT-5" target="TlWQN2txDWV7WAbXTliT-11">
          <mxGeometry relative="1" as="geometry" />
        </mxCell>
        <mxCell id="TlWQN2txDWV7WAbXTliT-25" value="" style="edgeStyle=orthogonalEdgeStyle;rounded=0;orthogonalLoop=1;jettySize=auto;html=1;" edge="1" parent="1" source="TlWQN2txDWV7WAbXTliT-5" target="TlWQN2txDWV7WAbXTliT-24">
          <mxGeometry relative="1" as="geometry">
            <Array as="points">
              <mxPoint x="220" y="300" />
            </Array>
          </mxGeometry>
        </mxCell>
        <mxCell id="TlWQN2txDWV7WAbXTliT-5" value="A&amp;gt;B" style="rhombus;whiteSpace=wrap;html=1;" vertex="1" parent="1">
          <mxGeometry x="350" y="260" width="80" height="80" as="geometry" />
        </mxCell>
        <mxCell id="TlWQN2txDWV7WAbXTliT-15" style="edgeStyle=orthogonalEdgeStyle;rounded=0;orthogonalLoop=1;jettySize=auto;html=1;" edge="1" parent="1" source="TlWQN2txDWV7WAbXTliT-11" target="TlWQN2txDWV7WAbXTliT-19">
          <mxGeometry relative="1" as="geometry">
            <mxPoint x="620" y="440" as="targetPoint" />
          </mxGeometry>
        </mxCell>
        <mxCell id="TlWQN2txDWV7WAbXTliT-21" value="" style="edgeStyle=orthogonalEdgeStyle;rounded=0;orthogonalLoop=1;jettySize=auto;html=1;" edge="1" parent="1" source="TlWQN2txDWV7WAbXTliT-11">
          <mxGeometry relative="1" as="geometry">
            <mxPoint x="410" y="440" as="targetPoint" />
          </mxGeometry>
        </mxCell>
        <mxCell id="TlWQN2txDWV7WAbXTliT-11" value="B&amp;gt;C" style="rhombus;whiteSpace=wrap;html=1;" vertex="1" parent="1">
          <mxGeometry x="490" y="340" width="80" height="80" as="geometry" />
        </mxCell>
        <mxCell id="TlWQN2txDWV7WAbXTliT-13" value="false" style="text;html=1;align=center;verticalAlign=middle;resizable=0;points=[];autosize=1;" vertex="1" parent="1">
          <mxGeometry x="430" y="280" width="40" height="20" as="geometry" />
        </mxCell>
        <mxCell id="TlWQN2txDWV7WAbXTliT-16" value="false" style="text;html=1;align=center;verticalAlign=middle;resizable=0;points=[];autosize=1;" vertex="1" parent="1">
          <mxGeometry x="570" y="360" width="40" height="20" as="geometry" />
        </mxCell>
        <mxCell id="TlWQN2txDWV7WAbXTliT-32" style="edgeStyle=orthogonalEdgeStyle;rounded=0;orthogonalLoop=1;jettySize=auto;html=1;exitX=0.75;exitY=1;exitDx=0;exitDy=0;" edge="1" parent="1" source="TlWQN2txDWV7WAbXTliT-19" target="TlWQN2txDWV7WAbXTliT-35">
          <mxGeometry relative="1" as="geometry">
            <mxPoint x="400" y="640" as="targetPoint" />
            <Array as="points">
              <mxPoint x="670" y="570" />
              <mxPoint x="400" y="570" />
            </Array>
          </mxGeometry>
        </mxCell>
        <mxCell id="TlWQN2txDWV7WAbXTliT-19" value="Напечатать С" style="rounded=1;whiteSpace=wrap;html=1;" vertex="1" parent="1">
          <mxGeometry x="580" y="440" width="120" height="60" as="geometry" />
        </mxCell>
        <mxCell id="TlWQN2txDWV7WAbXTliT-33" style="edgeStyle=orthogonalEdgeStyle;rounded=0;orthogonalLoop=1;jettySize=auto;html=1;exitX=0.5;exitY=1;exitDx=0;exitDy=0;" edge="1" parent="1" source="TlWQN2txDWV7WAbXTliT-22">
          <mxGeometry relative="1" as="geometry">
            <mxPoint x="400" y="640" as="targetPoint" />
          </mxGeometry>
        </mxCell>
        <mxCell id="TlWQN2txDWV7WAbXTliT-22" value="Напечатать B" style="rounded=1;whiteSpace=wrap;html=1;" vertex="1" parent="1">
          <mxGeometry x="350" y="440" width="120" height="60" as="geometry" />
        </mxCell>
        <mxCell id="TlWQN2txDWV7WAbXTliT-23" value="true" style="text;html=1;align=center;verticalAlign=middle;resizable=0;points=[];autosize=1;" vertex="1" parent="1">
          <mxGeometry x="450" y="360" width="40" height="20" as="geometry" />
        </mxCell>
        <mxCell id="TlWQN2txDWV7WAbXTliT-28" style="edgeStyle=orthogonalEdgeStyle;rounded=0;orthogonalLoop=1;jettySize=auto;html=1;entryX=0.5;entryY=0;entryDx=0;entryDy=0;exitX=0;exitY=0.5;exitDx=0;exitDy=0;" edge="1" parent="1" source="TlWQN2txDWV7WAbXTliT-24" target="TlWQN2txDWV7WAbXTliT-27">
          <mxGeometry relative="1" as="geometry">
            <Array as="points">
              <mxPoint x="120" y="370" />
            </Array>
          </mxGeometry>
        </mxCell>
        <mxCell id="TlWQN2txDWV7WAbXTliT-30" style="edgeStyle=orthogonalEdgeStyle;rounded=0;orthogonalLoop=1;jettySize=auto;html=1;entryX=0.5;entryY=1;entryDx=0;entryDy=0;" edge="1" parent="1" source="TlWQN2txDWV7WAbXTliT-24" target="TlWQN2txDWV7WAbXTliT-19">
          <mxGeometry relative="1" as="geometry">
            <mxPoint x="660" y="540" as="targetPoint" />
            <Array as="points">
              <mxPoint x="300" y="370" />
              <mxPoint x="300" y="550" />
              <mxPoint x="640" y="550" />
            </Array>
          </mxGeometry>
        </mxCell>
        <mxCell id="TlWQN2txDWV7WAbXTliT-24" value="A&amp;gt;C" style="rhombus;whiteSpace=wrap;html=1;" vertex="1" parent="1">
          <mxGeometry x="180" y="330" width="80" height="80" as="geometry" />
        </mxCell>
        <mxCell id="TlWQN2txDWV7WAbXTliT-26" value="true" style="text;html=1;align=center;verticalAlign=middle;resizable=0;points=[];autosize=1;" vertex="1" parent="1">
          <mxGeometry x="310" y="280" width="40" height="20" as="geometry" />
        </mxCell>
        <mxCell id="TlWQN2txDWV7WAbXTliT-34" style="edgeStyle=orthogonalEdgeStyle;rounded=0;orthogonalLoop=1;jettySize=auto;html=1;exitX=0.5;exitY=1;exitDx=0;exitDy=0;" edge="1" parent="1" source="TlWQN2txDWV7WAbXTliT-27">
          <mxGeometry relative="1" as="geometry">
            <mxPoint x="400" y="640" as="targetPoint" />
          </mxGeometry>
        </mxCell>
        <mxCell id="TlWQN2txDWV7WAbXTliT-27" value="Напечатать A" style="rounded=1;whiteSpace=wrap;html=1;" vertex="1" parent="1">
          <mxGeometry x="60" y="440" width="120" height="60" as="geometry" />
        </mxCell>
        <mxCell id="TlWQN2txDWV7WAbXTliT-29" value="true" style="text;html=1;align=center;verticalAlign=middle;resizable=0;points=[];autosize=1;" vertex="1" parent="1">
          <mxGeometry x="140" y="350" width="40" height="20" as="geometry" />
        </mxCell>
        <mxCell id="TlWQN2txDWV7WAbXTliT-35" value="Конец" style="ellipse;whiteSpace=wrap;html=1;" vertex="1" parent="1">
          <mxGeometry x="340" y="630" width="120" height="80" as="geometry" />
        </mxCell>
      </root>
    </mxGraphModel>
  </diagram>
</mxfile>
